<svg width="14.000000" height="14.000000" viewBox="0 0 14 14" fill="none" xmlns="http://www.w3.org/2000/svg" xmlns:xlink="http://www.w3.org/1999/xlink">
	<desc>
			Created with Pixso.
	</desc>
	<defs/>
	<g opacity="0.600000">
		<path id="Path" d="M4 5.59L2.8 5.59L2.8 0.56C2.8 0.25 3.06 0 3.4 0L10.6 0C10.93 0 11.2 0.25 11.2 0.56L11.2 3.92L10 3.92L10 1.12L4 1.12L4 5.59Z" fill="#3A416F" fill-opacity="1.000000" fill-rule="nonzero"/>
	</g>
	<path id="Shape" d="M13.4167 4.90002L8.16675 4.90002C7.84399 4.90002 7.58325 5.1543 7.58325 5.46875L7.58325 12.8625L6.41675 12.8625L6.41675 7.74377C6.41675 7.4292 6.15601 7.17505 5.83325 7.17505L0.583252 7.17505C0.260742 7.17505 0 7.4292 0 7.74377L0 13.4313C0 13.7458 0.260742 14 0.583252 14L13.4167 14C13.7393 14 14 13.7458 14 13.4313L14 5.46875C14 5.1543 13.7393 4.90002 13.4167 4.90002ZM9.91675 7.74377L11.6667 7.74377L11.6667 6.60632L9.91675 6.60632L9.91675 7.74377ZM4.08325 10.0188L2.33325 10.0188L2.33325 8.88123L4.08325 8.88123L4.08325 10.0188ZM11.6667 10.0188L9.91675 10.0188L9.91675 8.88123L11.6667 8.88123L11.6667 10.0188ZM2.33325 12.2938L4.08325 12.2938L4.08325 11.1562L2.33325 11.1562L2.33325 12.2938ZM9.91675 12.2938L11.6667 12.2938L11.6667 11.1562L9.91675 11.1562L9.91675 12.2938Z" clip-rule="evenodd" fill="#3A416F" fill-opacity="1.000000" fill-rule="evenodd"/>
</svg>
