<svg width="17.000000" height="18.133301" viewBox="0 0 17 18.1333" fill="none" xmlns="http://www.w3.org/2000/svg" xmlns:xlink="http://www.w3.org/1999/xlink">
	<desc>
			Created with Pixso.
	</desc>
	<defs/>
	<path id="Path" d="M3.4 14.16L3.4 15.86C3.4 16.49 2.89 17 2.26 17C1.64 17 1.13 16.49 1.13 15.86L1.13 1.13L9.06 1.13L9.06 0L0.56 0C0.25 0 0 0.25 0 0.56L0 15.86C0 17.11 1.01 18.13 2.26 18.13L14.16 18.13C15.41 18.13 16.43 17.11 16.43 15.86L16.43 14.16L3.4 14.16Z" fill="#FFFFFF" fill-opacity="1.000000" fill-rule="nonzero"/>
	<path id="Path" d="M13.03 9.06C11.98 9.06 11.01 8.74 10.2 8.2L10.2 12.81L13.03 11.4L15.86 12.81L15.86 8.2C15.05 8.74 14.08 9.06 13.03 9.06Z" fill="#FFFFFF" fill-opacity="1.000000" fill-rule="nonzero"/>
	<circle id="Oval" cx="13.033325" cy="3.966675" r="3.966667" fill="#FFFFFF" fill-opacity="1.000000"/>
</svg>
