<svg width="14.000000" height="13.983643" viewBox="0 0 14 13.9836" fill="none" xmlns="http://www.w3.org/2000/svg" xmlns:xlink="http://www.w3.org/1999/xlink">
	<desc>
			Created with Pixso.
	</desc>
	<defs/>
	<g opacity="0.598982">
		<path id="Path" d="M13.91 3.19L12.16 0.28C12.06 0.1 11.87 0 11.66 0L2.33 0C2.12 0 1.93 0.1 1.83 0.28L0.08 3.19C0.02 3.29 0 3.39 0 3.5C-0.01 4.78 1.03 5.83 2.32 5.83L2.32 5.83C2.9 5.83 3.46 5.62 3.88 5.23C4.77 6.03 6.11 6.03 6.99 5.23C7.88 6.03 9.22 6.03 10.11 5.23C10.79 5.85 11.77 6 12.62 5.63C13.46 5.25 14 4.42 14 3.5C14 3.39 13.97 3.29 13.91 3.19Z" fill="#FFFFFF" fill-opacity="1.000000" fill-rule="nonzero"/>
	</g>
	<path id="Path" d="M11.67 6.69C11.13 6.69 10.59 6.55 10.11 6.28L10.1 6.28C9.27 6.75 8.31 6.83 7.44 6.49C7.29 6.43 7.14 6.36 6.99 6.28L6.99 6.28C6.16 6.75 5.2 6.83 4.33 6.49C4.17 6.43 4.03 6.36 3.88 6.28C3.4 6.55 2.86 6.7 2.32 6.69C2.13 6.69 1.94 6.67 1.75 6.63L1.75 13.32C1.75 13.68 2.01 13.98 2.33 13.98L5.83 13.98L5.83 10.01L8.16 10.01L8.16 13.98L11.66 13.98C11.98 13.98 12.25 13.68 12.25 13.32L12.25 6.63C12.06 6.67 11.86 6.69 11.67 6.69Z" fill="#FFFFFF" fill-opacity="1.000000" fill-rule="nonzero"/>
</svg>
