<svg width="20.000000" height="20.000000" viewBox="0 0 20 20" fill="none" xmlns="http://www.w3.org/2000/svg" xmlns:xlink="http://www.w3.org/1999/xlink">
	<desc>
			Created with Pixso.
	</desc>
	<defs/>
	<circle id="Oval" cx="3.334167" cy="18.333496" r="1.666579" fill="#FFFFFF" fill-opacity="1.000000"/>
	<circle id="Oval" cx="16.666809" cy="18.333496" r="1.666579" fill="#FFFFFF" fill-opacity="1.000000"/>
	<path id="Path" d="M19.16 13.33L2.18 13.33L3.01 11.66L15.83 11.66C16.17 11.66 16.48 11.45 16.6 11.14L19.94 2.81C20.04 2.55 20.01 2.26 19.85 2.03C19.7 1.8 19.44 1.66 19.16 1.66L2.84 1.66L1.42 0.24C1.09 -0.09 0.57 -0.09 0.24 0.24C-0.09 0.57 -0.09 1.09 0.24 1.42L1.66 2.84L1.66 10.63L0.08 13.79C-0.05 14.05 -0.03 14.35 0.12 14.6C0.27 14.85 0.54 15 0.83 15L19.16 15C19.62 15 20 14.62 20 14.16C20 13.7 19.62 13.33 19.16 13.33Z" fill="#FFFFFF" fill-opacity="1.000000" fill-rule="nonzero"/>
</svg>
